<svg width="120" height="120" viewBox="0 0 120 120" fill="none" xmlns="http://www.w3.org/2000/svg">
<rect width="120" height="120" rx="12" fill="#E1E3EA"/>
<path d="M40.1667 85.5H79.8333C82.9629 85.5 85.5 82.9629 85.5 79.8333V40.1667C85.5 37.0371 82.9629 34.5 79.8333 34.5H40.1667C37.0371 34.5 34.5 37.0371 34.5 40.1667V79.8333C34.5 82.9629 37.0371 85.5 40.1667 85.5ZM40.1667 85.5L71.3333 54.3333L85.5 68.5M54.3333 50.0833C54.3333 52.4305 52.4305 54.3333 50.0833 54.3333C47.7361 54.3333 45.8333 52.4305 45.8333 50.0833C45.8333 47.7361 47.7361 45.8333 50.0833 45.8333C52.4305 45.8333 54.3333 47.7361 54.3333 50.0833Z" stroke="#5E6278" stroke-width="4" stroke-linecap="round" stroke-linejoin="round"/>
</svg>
